<svg width="24" height="24" xmlns="http://www.w3.org/2000/svg"><path fill-rule="evenodd" clip-rule="evenodd" d="M18.828 22h-12a2 2 0 0 1-2-2V10h2v10h12V9h-5V4h-3V2h3.474a2 2 0 0 1 1.394.566l4.527 4.4a2 2 0 0 1 .605 1.435V20a2 2 0 0 1-2 2zM9 13a1 1 0 0 1 1-1h6a1 1 0 1 1 0 2h-6a1 1 0 0 1-1-1zm1 3a1 1 0 1 0 0 2h4a1 1 0 1 0 0-2h-4zM3.707 7.121a1 1 0 0 1 0-1.414L4.414 5l-.707-.707a1 1 0 1 1 1.414-1.414l.707.707.708-.707A1 1 0 0 1 7.95 4.293L7.243 5l.707.707a1 1 0 0 1-1.414 1.414l-.708-.707-.707.707a1 1 0 0 1-1.414 0z"/></svg>