<svg width="24" height="24" xmlns="http://www.w3.org/2000/svg"><path fill-rule="evenodd" clip-rule="evenodd" d="M11.193 2a1 1 0 0 0-.936.649l-.643 1.713a7.95 7.95 0 0 0-1.328.55L6.62 4.155a1 1 0 0 0-1.12.203L4.358 5.5a1 1 0 0 0-.203 1.12l.757 1.666a7.951 7.951 0 0 0-.55 1.328l-1.713.643a1 1 0 0 0-.649.936v1.614a1 1 0 0 0 .649.936l1.713.643a7.96 7.96 0 0 0 .704 1.606l-.719 1.58a1 1 0 0 0 .204 1.12l1.141 1.142a1 1 0 0 0 1.12.203l1.768-.803c.333.158.678.293 1.034.404l.643 1.713a1 1 0 0 0 .936.649h1.614a1 1 0 0 0 .936-.649l.643-1.713a7.946 7.946 0 0 0 1.328-.55l1.665.757a1 1 0 0 0 1.121-.203l1.142-1.142a1 1 0 0 0 .203-1.12l-.757-1.666c.221-.422.406-.866.55-1.328l1.713-.643a1 1 0 0 0 .649-.936v-1.614a1 1 0 0 0-.649-.936l-1.713-.643a7.947 7.947 0 0 0-.404-1.034l.803-1.767a1 1 0 0 0-.203-1.121L18.693 4.55a1 1 0 0 0-1.121-.204l-1.58.719a7.957 7.957 0 0 0-1.606-.704l-.643-1.713A1 1 0 0 0 12.807 2h-1.614zM12 16a4 4 0 1 0 0-8 4 4 0 0 0 0 8z"/></svg>