<svg width="240" height="240" viewBox="0 0 240 240" fill="none" xmlns="http://www.w3.org/2000/svg">
    <path d="M176.031 120.58C176.031 141.004 169.66 159.421 159.453 172.691C149.247 185.958 135.287 194 120.015 194C104.744 194 90.7832 185.958 80.5775 172.691C70.3701 159.421 64 141.004 64 120.58C64 100.156 70.3701 81.7393 80.5775 68.4697C90.7832 55.2022 104.744 47.1603 120.015 47.1603C135.287 47.1603 149.247 55.2022 159.453 68.4697C169.66 81.7393 176.031 100.156 176.031 120.58Z" fill="#C88050" stroke="black" stroke-width="4"/>
    <ellipse cx="120" cy="148.928" rx="10" ry="6" fill="#282828"/>
    <circle cx="153" cy="153" r="7" fill="#F28B99"/>
    <circle cx="87" cy="153" r="7" fill="#F28B99"/>
    <circle cx="99" cy="128" r="8" fill="#282828"/>
    <circle cx="101.667" cy="125.333" r="3.55556" fill="#E6E6E6"/>
    <circle cx="101.667" cy="125.333" r="3.55556" fill="#E6E6E6"/>
    <circle r="8" transform="matrix(-1 0 0 1 141 128)" fill="#282828"/>
    <circle r="3.55556" transform="matrix(-1 0 0 1 138.333 125.333)" fill="#E6E6E6"/>
    <circle r="3.55556" transform="matrix(-1 0 0 1 138.333 125.333)" fill="#E6E6E6"/>
    <path d="M98 166.512C98 170.271 103.195 173.317 109.603 173.317C114.196 173.317 118.165 171.752 120.046 169.482C121.926 171.752 125.896 173.317 130.489 173.317C136.897 173.317 142.092 170.271 142.092 166.512" stroke="#282828" stroke-width="2"/>
    <path d="M120.084 195C116.801 195 113.608 192.733 111.022 188.556C108.624 184.683 106.857 179.317 106.135 173.151C107.214 173.33 108.337 173.424 109.487 173.424C113.567 173.424 117.442 172.23 120.084 170.107C122.726 172.23 126.601 173.424 130.681 173.424C131.831 173.424 132.954 173.33 134.033 173.151C133.311 179.317 131.544 184.683 129.146 188.556C126.56 192.733 123.367 195 120.084 195Z" fill="#D7919A" stroke="#282828" stroke-width="2"/>
    <path d="M170.346 107.228L171.884 103.356L167.901 104.577C154.799 108.593 138.653 110.976 121.158 110.976C102.48 110.976 85.344 108.26 71.8087 103.743L67.7273 102.381L69.317 106.379C71.0942 110.849 72.9602 115.546 74.4681 119.712C75.9948 123.929 77.0861 127.421 77.3962 129.545C77.9421 133.284 75.5508 135.491 71.6143 138.812L71.4486 138.952C68.281 141.624 64.3399 144.947 63.0939 150.288L63.0524 150.466L63.0438 150.649C62.6769 158.46 57.8926 163.155 55.4482 165.531L55.4229 165.556C55.1193 165.851 54.818 166.144 54.5793 166.397C54.3948 166.593 54.0128 167 53.7974 167.489L55.6278 168.295L53.7974 167.489C53.7366 167.627 53.6656 167.811 53.6044 167.97L53.5919 168.002L55.4577 168.723L53.5918 168.002C53.1512 169.144 52.1793 171.637 50.2902 173.794C48.4505 175.895 45.7929 177.629 41.8248 177.457C37.8646 177.285 35.2049 177.525 33.0135 178.303C30.8632 179.066 29.326 180.301 27.6402 181.654L27.5263 181.746C26.4131 182.639 25.1626 183.642 23.4951 184.784C21.6711 186.033 20.0047 186.934 18.5499 187.46C17.0797 187.993 15.9669 188.092 15.1701 187.928C14.4547 187.78 13.8422 187.393 13.3256 186.542C12.7683 185.623 12.3077 184.125 12.1612 181.803C11.5717 172.462 12.6918 163.326 13.9991 154.089C14.1352 153.128 14.2731 152.166 14.4112 151.204L14.4216 151.131C15.6434 142.613 16.883 133.971 16.8198 125.214C16.7138 110.549 16.4672 106.809 16.1324 101.763C16.0369 100.324 15.9349 98.7867 15.8271 96.8523C15.2674 86.8156 16.9487 78.9879 20.3331 73.8642C21.0107 72.8383 22.3238 71.7475 24.1468 70.6745C25.9312 69.6242 28.0248 68.6937 30.0571 67.9154C32.0818 67.1399 34.0009 66.5322 35.4166 66.118C36.123 65.9113 36.7007 65.7538 37.0993 65.6486C37.2636 65.6052 37.3974 65.5707 37.497 65.5454C37.6323 65.5439 37.8299 65.5426 38.081 65.5437C38.6022 65.5461 39.352 65.5588 40.2534 65.6004C42.0646 65.6839 44.4495 65.8823 46.8085 66.3347L47.8159 66.5279L48.5606 65.8226C54.569 60.1314 64.4788 55.1554 77.1127 51.6077C89.7076 48.0711 104.848 46 121.158 46C137.32 46 152.334 48.0337 164.861 51.5122C177.424 55.0008 187.331 59.8992 193.427 65.5163L194.124 66.1578L195.061 66.026C197.09 65.7409 199.011 65.621 200.431 65.573C201.138 65.5491 201.716 65.5433 202.114 65.5433C202.274 65.5433 202.405 65.5443 202.503 65.5454C202.603 65.5707 202.736 65.6052 202.901 65.6486C203.299 65.7538 203.877 65.9113 204.583 66.118C205.999 66.5322 207.918 67.1399 209.943 67.9154C211.975 68.6937 214.069 69.6242 215.853 70.6745C217.676 71.7475 218.989 72.8383 219.667 73.8642C223.051 78.9879 224.733 86.8156 224.173 96.8523C224.065 98.7816 223.964 100.316 223.868 101.752L223.868 101.753L223.868 101.762L223.868 101.763C223.533 106.809 223.286 110.549 223.18 125.214C223.117 133.971 224.357 142.613 225.578 151.131L225.589 151.203C225.727 152.166 225.865 153.127 226.001 154.089C227.308 163.326 228.428 172.462 227.839 181.803C227.692 184.125 227.232 185.623 226.674 186.542C226.158 187.393 225.545 187.78 224.83 187.928C224.033 188.092 222.92 187.993 221.45 187.46C219.995 186.934 218.329 186.033 216.505 184.784C214.837 183.642 213.587 182.639 212.474 181.746L212.36 181.654C210.674 180.301 209.137 179.066 206.986 178.303C204.795 177.525 202.135 177.285 198.175 177.457C194.207 177.629 191.549 175.895 189.71 173.794C187.821 171.637 186.849 169.144 186.408 168.002L186.395 167.969C186.334 167.811 186.263 167.627 186.203 167.489C185.987 167 185.605 166.593 185.421 166.397C185.182 166.144 184.88 165.851 184.576 165.555L184.552 165.531C182.107 163.155 177.323 158.46 176.956 150.649L176.948 150.466L176.906 150.288C175.66 144.947 171.719 141.624 168.551 138.952L168.386 138.812C164.449 135.491 162.058 133.284 162.604 129.545C162.904 127.492 163.935 124.152 165.39 120.104C166.828 116.106 168.615 111.583 170.346 107.228Z" fill="#C88050" stroke="black" stroke-width="4"/>
</svg>
